<svg xmlns="http://www.w3.org/2000/svg" width="56.643" height="16.957" viewBox="0 0 56.643 16.957">
  <g id="Group_141" data-name="Group 141" transform="translate(-450.179 -2272)">
    <g id="Layer_2" data-name="Layer 2" transform="translate(470.021 2288.957) rotate(-90)">
      <g id="Layer_1" data-name="Layer 1">
        <path id="Path_1" data-name="Path 1" d="M8.515,16.958a1.106,1.106,0,0,1,.1-.127q1.123-1.126,2.251-2.246a.4.4,0,0,1,.255-.107c1.054-.007,2.109,0,3.164,0h.2v-.188q0-1.582,0-3.164a.349.349,0,0,1,.112-.275q1.123-1.114,2.239-2.235c.041-.041.083-.086.129-.137-.049-.051-.089-.1-.131-.137-.73-.73-1.458-1.462-2.192-2.188a.474.474,0,0,1-.159-.373c.008-1.032,0-2.065,0-3.1v-.2h-.185c-1.043,0-2.087,0-3.131,0a.438.438,0,0,1-.344-.146q-1.1-1.106-2.2-2.2C8.579.09,8.534.048,8.483,0c-.05.048-.094.088-.137.129Q7.226,1.247,6.112,2.368a.351.351,0,0,1-.275.112c-1.049,0-2.1,0-3.147,0h-.2v.183q0,1.59,0,3.18a.359.359,0,0,1-.083.231Q1.256,7.228.1,8.371a.654.654,0,0,1-.1.072v.066a1.106,1.106,0,0,1,.127.1c.75.747,1.5,1.5,2.251,2.245a.349.349,0,0,1,.11.276c0,1.054,0,2.108,0,3.162v.185h.2q1.573,0,3.146,0a.349.349,0,0,1,.276.11q1.12,1.129,2.245,2.251a1.106,1.106,0,0,1,.1.124ZM14.939,8.5a1.377,1.377,0,0,0-.163.119c-.548.545-1.1,1.089-1.638,1.642a.409.409,0,0,0-.107.255c-.008.773,0,1.546,0,2.319v.19h-.2c-.762,0-1.524,0-2.286,0a.366.366,0,0,0-.29.117c-.543.551-1.091,1.1-1.638,1.642-.041.041-.085.081-.152.143a1.726,1.726,0,0,0-.119-.154c-.542-.544-1.086-1.084-1.625-1.631a.366.366,0,0,0-.29-.117c-.767,0-1.535,0-2.3,0H3.936v-.2c0-.767,0-1.535,0-2.3a.409.409,0,0,0-.107-.256C3.28,9.7,2.727,9.154,2.177,8.6c-.041-.041-.081-.083-.124-.13.6-.6,1.184-1.184,1.772-1.768a.35.35,0,0,0,.115-.274c0-.773,0-1.546,0-2.319V3.931c.85,0,1.672,0,2.495,0a.349.349,0,0,0,.276-.112C7.251,3.271,7.8,2.726,8.346,2.18c.041-.041.086-.083.136-.129.05.047.094.088.136.13.547.547,1.095,1.092,1.638,1.642a.351.351,0,0,0,.276.112c.767,0,1.535,0,2.3,0h.194v.2c0,.762,0,1.524,0,2.286a.386.386,0,0,0,.127.3C13.735,7.294,14.316,7.877,14.939,8.5Z" fill="#903f9b"/>
        <path id="Path_2" data-name="Path 2" d="M92.059,84.893h-.4c-.513,0-1.027,0-1.54,0a.389.389,0,0,1-.241-.1c-.42-.408-.83-.824-1.245-1.238-.039-.039-.079-.075-.166-.159a1.434,1.434,0,0,1-.142.207c-.392.4-.788.788-1.18,1.186a.347.347,0,0,1-.275.112c-.629,0-1.258,0-1.915,0v.181c0,.581,0,1.159,0,1.739a.348.348,0,0,1-.116.273c-.451.445-.9.9-1.356,1.354.047.05.086.094.127.136.415.415.83.825,1.238,1.245a.385.385,0,0,1,.1.242c.008.634,0,1.269,0,1.925.064,0,.122.007.18.007.585,0,1.171,0,1.756,0a.386.386,0,0,1,.241.1c.456.447.907.9,1.369,1.365.052-.049.1-.088.138-.129.415-.415.825-.83,1.245-1.237a.387.387,0,0,1,.242-.1c.634-.008,1.269,0,1.933,0v-.181c0-.585,0-1.171,0-1.756a.386.386,0,0,1,.1-.241c.447-.456.9-.907,1.364-1.369-.049-.052-.088-.1-.129-.138-.41-.41-.818-.822-1.231-1.229a.347.347,0,0,1-.112-.275C92.062,86.179,92.059,85.551,92.059,84.893Z" transform="translate(-80.025 -79.969)" fill="#903f9b"/>
      </g>
    </g>
    <g id="Layer_2-2" data-name="Layer 2" transform="translate(494.5 2286.639) rotate(-90)">
      <g id="Layer_1-2" data-name="Layer 1">
        <path id="Path_1-2" data-name="Path 1" d="M6.187,12.321a.8.8,0,0,1,.069-.092q.816-.818,1.636-1.632a.294.294,0,0,1,.185-.078c.766-.005,1.532,0,2.3,0h.145V10.38q0-1.149,0-2.3a.254.254,0,0,1,.081-.2q.816-.81,1.627-1.624c.03-.03.06-.063.094-.1-.035-.037-.065-.069-.1-.1C11.7,5.528,11.166,5,10.633,4.469a.344.344,0,0,1-.115-.271c.006-.75,0-1.5,0-2.25V1.8h-.135c-.758,0-1.516,0-2.275,0a.318.318,0,0,1-.25-.106q-.8-.8-1.6-1.6c-.03-.03-.062-.06-.1-.1-.036.035-.068.064-.1.094Q5.25.906,4.441,1.721a.255.255,0,0,1-.2.081c-.762,0-1.524,0-2.287,0H1.805v.133q0,1.156,0,2.311a.261.261,0,0,1-.06.168q-.83.84-1.667,1.67A.475.475,0,0,1,0,6.134v.048a.8.8,0,0,1,.092.069c.545.543,1.088,1.089,1.635,1.631a.254.254,0,0,1,.08.2c0,.766,0,1.532,0,2.3v.135h.147q1.143,0,2.286,0a.254.254,0,0,1,.2.08q.814.82,1.631,1.635a.8.8,0,0,1,.069.09Zm4.667-6.147a1,1,0,0,0-.118.086c-.4.4-.8.791-1.19,1.193a.3.3,0,0,0-.078.185c-.006.562,0,1.123,0,1.685v.138H9.319c-.554,0-1.107,0-1.661,0a.266.266,0,0,0-.211.085c-.394.4-.793.8-1.19,1.193-.03.03-.062.058-.11.1a1.254,1.254,0,0,0-.086-.112c-.393-.395-.789-.788-1.181-1.185a.266.266,0,0,0-.211-.085c-.557,0-1.116,0-1.673,0H2.86V9.312c0-.557,0-1.116,0-1.673a.3.3,0,0,0-.078-.186c-.4-.4-.8-.8-1.2-1.2-.03-.03-.058-.06-.09-.094.436-.435.861-.86,1.288-1.285a.254.254,0,0,0,.084-.2c0-.562,0-1.123,0-1.685V2.856c.618,0,1.215,0,1.813,0a.254.254,0,0,0,.2-.081c.395-.4.793-.8,1.19-1.192.03-.03.062-.06.1-.094.036.034.068.064.1.094.4.4.8.793,1.19,1.193a.255.255,0,0,0,.2.081c.557,0,1.116,0,1.673,0h.141V3c0,.554,0,1.107,0,1.661a.281.281,0,0,0,.092.22C9.98,5.3,10.4,5.724,10.854,6.174Z" fill="#903f9b"/>
        <path id="Path_2-2" data-name="Path 2" d="M89.716,84.482h-.288c-.373,0-.746,0-1.119,0a.283.283,0,0,1-.175-.074c-.305-.3-.6-.6-.9-.9-.028-.028-.057-.055-.121-.116a1.044,1.044,0,0,1-.1.151c-.285.288-.573.573-.857.861a.252.252,0,0,1-.2.082c-.457,0-.914,0-1.391,0v.132c0,.422,0,.842,0,1.264a.253.253,0,0,1-.084.2c-.328.324-.652.651-.985.984.034.036.062.068.093.1.3.3.6.6.9.9a.28.28,0,0,1,.072.175c.006.461,0,.922,0,1.4.046,0,.088.005.131.005.425,0,.851,0,1.276,0a.28.28,0,0,1,.175.073c.332.325.659.656.995.992.038-.035.07-.064.1-.094.3-.3.6-.6.9-.9a.281.281,0,0,1,.176-.072c.461-.006.922,0,1.4,0v-.131c0-.425,0-.851,0-1.276a.28.28,0,0,1,.074-.175c.325-.332.655-.659.991-.995-.035-.038-.064-.07-.094-.1-.3-.3-.594-.6-.895-.893a.252.252,0,0,1-.082-.2C89.718,85.417,89.716,84.96,89.716,84.482Z" transform="translate(-80.973 -80.904)" fill="#903f9b"/>
      </g>
    </g>
    <g id="Layer_2-3" data-name="Layer 2" transform="translate(450.179 2286.639) rotate(-90)">
      <g id="Layer_1-3" data-name="Layer 1">
        <path id="Path_1-3" data-name="Path 1" d="M6.187,12.321a.8.8,0,0,1,.069-.092q.816-.818,1.636-1.632a.294.294,0,0,1,.185-.078c.766-.005,1.532,0,2.3,0h.145V10.38q0-1.149,0-2.3a.254.254,0,0,1,.081-.2q.816-.81,1.627-1.624c.03-.03.06-.063.094-.1-.035-.037-.065-.069-.1-.1C11.7,5.528,11.166,5,10.633,4.469a.344.344,0,0,1-.115-.271c.006-.75,0-1.5,0-2.25V1.8h-.135c-.758,0-1.516,0-2.275,0a.318.318,0,0,1-.25-.106q-.8-.8-1.6-1.6c-.03-.03-.062-.06-.1-.1-.036.035-.068.064-.1.094Q5.25.906,4.441,1.721a.255.255,0,0,1-.2.081c-.762,0-1.524,0-2.287,0H1.805v.133q0,1.156,0,2.311a.261.261,0,0,1-.06.168q-.83.84-1.667,1.67A.475.475,0,0,1,0,6.134v.048a.8.8,0,0,1,.092.069c.545.543,1.088,1.089,1.635,1.631a.254.254,0,0,1,.08.2c0,.766,0,1.532,0,2.3v.135h.147q1.143,0,2.286,0a.254.254,0,0,1,.2.08q.814.82,1.631,1.635a.8.8,0,0,1,.069.09Zm4.667-6.147a1,1,0,0,0-.118.086c-.4.4-.8.791-1.19,1.193a.3.3,0,0,0-.078.185c-.006.562,0,1.123,0,1.685v.138H9.319c-.554,0-1.107,0-1.661,0a.266.266,0,0,0-.211.085c-.394.4-.793.8-1.19,1.193-.03.03-.062.058-.11.1a1.254,1.254,0,0,0-.086-.112c-.393-.395-.789-.788-1.181-1.185a.266.266,0,0,0-.211-.085c-.557,0-1.116,0-1.673,0H2.86V9.312c0-.557,0-1.116,0-1.673a.3.3,0,0,0-.078-.186c-.4-.4-.8-.8-1.2-1.2-.03-.03-.058-.06-.09-.094.436-.435.861-.86,1.288-1.285a.254.254,0,0,0,.084-.2c0-.562,0-1.123,0-1.685V2.856c.618,0,1.215,0,1.813,0a.254.254,0,0,0,.2-.081c.395-.4.793-.8,1.19-1.192.03-.03.062-.06.1-.094.036.034.068.064.1.094.4.4.8.793,1.19,1.193a.255.255,0,0,0,.2.081c.557,0,1.116,0,1.673,0h.141V3c0,.554,0,1.107,0,1.661a.281.281,0,0,0,.092.22C9.98,5.3,10.4,5.724,10.854,6.174Z" fill="#903f9b"/>
        <path id="Path_2-3" data-name="Path 2" d="M89.716,84.482h-.288c-.373,0-.746,0-1.119,0a.283.283,0,0,1-.175-.074c-.305-.3-.6-.6-.9-.9-.028-.028-.057-.055-.121-.116a1.044,1.044,0,0,1-.1.151c-.285.288-.573.573-.857.861a.252.252,0,0,1-.2.082c-.457,0-.914,0-1.391,0v.132c0,.422,0,.842,0,1.264a.253.253,0,0,1-.084.2c-.328.324-.652.651-.985.984.034.036.062.068.093.1.3.3.6.6.9.9a.28.28,0,0,1,.072.175c.006.461,0,.922,0,1.4.046,0,.088.005.131.005.425,0,.851,0,1.276,0a.28.28,0,0,1,.175.073c.332.325.659.656.995.992.038-.035.07-.064.1-.094.3-.3.6-.6.9-.9a.281.281,0,0,1,.176-.072c.461-.006.922,0,1.4,0v-.131c0-.425,0-.851,0-1.276a.28.28,0,0,1,.074-.175c.325-.332.655-.659.991-.995-.035-.038-.064-.07-.094-.1-.3-.3-.594-.6-.895-.893a.252.252,0,0,1-.082-.2C89.718,85.417,89.716,84.96,89.716,84.482Z" transform="translate(-80.973 -80.904)" fill="#903f9b"/>
      </g>
    </g>
  </g>
</svg>
