<svg xmlns="http://www.w3.org/2000/svg" width="12.321" height="12.321" viewBox="0 0 12.321 12.321">
  <g id="Layer_2" data-name="Layer 2" transform="translate(0 12.321) rotate(-90)">
    <g id="Layer_1" data-name="Layer 1">
      <path id="Path_1" data-name="Path 1" d="M6.187,12.321a.8.8,0,0,1,.069-.092q.816-.818,1.636-1.632a.294.294,0,0,1,.185-.078c.766-.005,1.532,0,2.3,0h.145V10.38q0-1.149,0-2.3a.254.254,0,0,1,.081-.2q.816-.81,1.627-1.624c.03-.03.06-.063.094-.1-.035-.037-.065-.069-.1-.1C11.7,5.528,11.166,5,10.633,4.469a.344.344,0,0,1-.115-.271c.006-.75,0-1.5,0-2.25V1.8h-.135c-.758,0-1.516,0-2.275,0a.318.318,0,0,1-.25-.106q-.8-.8-1.6-1.6c-.03-.03-.062-.06-.1-.1-.036.035-.068.064-.1.094Q5.25.906,4.441,1.721a.255.255,0,0,1-.2.081c-.762,0-1.524,0-2.287,0H1.805v.133q0,1.156,0,2.311a.261.261,0,0,1-.06.168q-.83.84-1.667,1.67A.475.475,0,0,1,0,6.134v.048a.8.8,0,0,1,.092.069c.545.543,1.088,1.089,1.635,1.631a.254.254,0,0,1,.08.2c0,.766,0,1.532,0,2.3v.135h.147q1.143,0,2.286,0a.254.254,0,0,1,.2.08q.814.82,1.631,1.635a.8.8,0,0,1,.069.09Zm4.667-6.147a1,1,0,0,0-.118.086c-.4.4-.8.791-1.19,1.193a.3.3,0,0,0-.078.185c-.006.562,0,1.123,0,1.685v.138H9.319c-.554,0-1.107,0-1.661,0a.266.266,0,0,0-.211.085c-.394.4-.793.8-1.19,1.193-.03.03-.062.058-.11.1a1.254,1.254,0,0,0-.086-.112c-.393-.395-.789-.788-1.181-1.185a.266.266,0,0,0-.211-.085c-.557,0-1.116,0-1.673,0H2.86V9.312c0-.557,0-1.116,0-1.673a.3.3,0,0,0-.078-.186c-.4-.4-.8-.8-1.2-1.2-.03-.03-.058-.06-.09-.094.436-.435.861-.86,1.288-1.285a.254.254,0,0,0,.084-.2c0-.562,0-1.123,0-1.685V2.856c.618,0,1.215,0,1.813,0a.254.254,0,0,0,.2-.081c.395-.4.793-.8,1.19-1.192.03-.03.062-.06.1-.094.036.034.068.064.1.094.4.4.8.793,1.19,1.193a.255.255,0,0,0,.2.081c.557,0,1.116,0,1.673,0h.141V3c0,.554,0,1.107,0,1.661a.281.281,0,0,0,.092.22C9.98,5.3,10.4,5.724,10.854,6.174Z" fill="#4a9b3f"/>
      <path id="Path_2" data-name="Path 2" d="M89.716,84.482h-.288c-.373,0-.746,0-1.119,0a.283.283,0,0,1-.175-.074c-.305-.3-.6-.6-.9-.9-.028-.028-.057-.055-.121-.116a1.044,1.044,0,0,1-.1.151c-.285.288-.573.573-.857.861a.252.252,0,0,1-.2.082c-.457,0-.914,0-1.391,0v.132c0,.422,0,.842,0,1.264a.253.253,0,0,1-.084.2c-.328.324-.652.651-.985.984.034.036.062.068.093.1.3.3.6.6.9.9a.28.28,0,0,1,.072.175c.006.461,0,.922,0,1.4.046,0,.088.005.131.005.425,0,.851,0,1.276,0a.28.28,0,0,1,.175.073c.332.325.659.656.995.992.038-.035.07-.064.1-.094.3-.3.6-.6.9-.9a.281.281,0,0,1,.176-.072c.461-.006.922,0,1.4,0v-.131c0-.425,0-.851,0-1.276a.28.28,0,0,1,.074-.175c.325-.332.655-.659.991-.995-.035-.038-.064-.07-.094-.1-.3-.3-.594-.6-.895-.893a.252.252,0,0,1-.082-.2C89.718,85.417,89.716,84.96,89.716,84.482Z" transform="translate(-80.973 -80.904)" fill="#4a9b3f"/>
    </g>
  </g>
</svg>
